<svg width="380" height="134" viewBox="0 0 380 134" fill="none" xmlns="http://www.w3.org/2000/svg">
<rect width="380" height="134" fill="#1E1E1E"/>
<path d="M6.99999 61C-0.608926 61.7609 2.0227 81.2709 3.66666 85.6667C10.0777 102.809 31.6447 63.418 33.3333 57.9445C36.0971 48.986 41.4961 27.6487 29.3889 22.3333C16.481 16.6664 2.00805 42.287 6.55555 52.5556C15.9857 73.8495 46.7644 53.8244 57 44.5556C64.8032 37.4894 71.2517 28.8435 75.6667 19.2778C76.0335 18.4829 81.2193 4.11762 77.7778 4.5C73.8983 4.93105 69.5907 14.4826 68 17.2222C61.8026 27.8955 57.6228 39.1387 55.2778 51.2778C53.3145 61.4408 48.8338 80.1754 56.1111 89.4445C62.6609 97.7868 73.7797 89.779 78.7778 84.3333C89.4486 72.707 101.254 55.5112 96 39C89.8883 19.7919 76.9095 39.5957 74.8889 50.0556C70.6163 72.1726 94.531 75.2067 109.889 68.7222C118.356 65.1473 125.356 58.8749 131.556 52.2222C134.596 48.9593 141.347 42.2713 140.333 37C139.442 32.3645 134.023 36.3446 132.389 37.8333C126.485 43.2127 121.751 50.19 119.222 57.7778C116.421 66.1814 113.039 80.7786 120.833 87.7222C128.615 94.6552 138.03 84.8244 142.944 79.3889C148.854 72.8521 153.938 65.7134 158.556 58.2222C161.257 53.8392 163.412 49.4644 168.444 47.5556C179.927 43.2002 175.299 55.1256 173.222 62C169.868 73.0996 169.549 86.7613 185 78.3333C206.959 66.3558 220.361 42.8052 234.722 23.2222C238.865 17.5733 242.857 11.4935 245.333 4.88889C246.75 1.11155 244.333 2.48644 242.333 4.27778C233.594 12.1069 226.195 21.756 222 32.7778C218.72 41.3963 216.734 50.6592 215.944 59.8333C215.56 64.3038 214.586 72.5233 218.111 76.4445C227.614 87.0162 246.12 64.8968 251.111 58.8889C254.292 55.0604 251.291 64.4196 251.111 65.4445C249.976 71.9126 252.408 76.6667 259.611 76.6667C274.29 76.6667 286.09 60.2662 292.278 48.8889C293.201 47.1913 295.949 42.5127 296 44.4445C296.193 51.7877 294.179 59.5339 292.778 66.6667C290.076 80.4232 287.584 94.1224 285.556 108C284.743 113.558 284.976 127.718 278.556 131.111C274.42 133.297 269.778 129.779 267.611 126.5C260.473 115.696 265.195 100.61 270.444 90.1111C279.489 72.0223 295.823 58.3717 313.833 49.6667C322.58 45.439 328.978 44.4747 329.778 55.6667C330.141 60.7543 329.58 65.7476 328.556 70.7222C328.309 71.9218 327.165 74.226 328.667 72.7778C337.559 64.2027 345.151 50.9602 356.611 45.8333C366.209 41.5395 362.241 56.5594 362.056 61.5556C361.609 73.6182 372.996 66.1702 378 62" stroke="white" stroke-width="3" stroke-linecap="round"/>
</svg>
