<svg width="386" height="219" viewBox="0 0 386 219" fill="none" xmlns="http://www.w3.org/2000/svg">
<rect width="386" height="219" fill="#1E1E1E"/>
<path d="M5.19177 118.148C-3.56098 130.743 6.47203 155.748 25.7255 148.948C48.3267 140.966 46.4774 107.329 47.1964 89.7404C47.5713 80.5695 50.5724 47.8603 30.4116 52.5329C10.8672 57.0627 -2.31556 80.7372 3.74334 97.3826C14.3713 126.58 58.4442 122.902 77.6135 103.018C88.4611 91.7653 107.501 60.0949 98.488 44.2732C91.9048 32.7171 72.1734 55.1482 68.9229 59.326C52.8315 80.0078 46.6887 105.714 49.0708 130.653C50.1168 141.604 55.0486 176.801 76.4207 159.91C89.2892 149.739 101.605 123.043 93.1203 108.035C85.3965 94.373 70.1157 103.432 70.1157 116.063C70.1157 136.999 105.157 148.106 122.174 137.06C134.884 128.81 152.362 112.039 150.717 96.765C148.687 77.911 131.447 101.816 128.905 107.804C123.284 121.046 130.13 157.78 151.398 137.755C158.563 131.009 162.622 121.957 167.416 113.825C169.432 110.406 170.981 108.421 175.34 108.421C194.475 108.421 165.305 136.606 191.103 136.365C211.274 136.177 225.032 107.29 230.296 93.4457C230.849 91.9887 241.416 55.8061 231.829 60.7155C211.706 71.0206 206.78 99.4678 206.78 117.839C206.78 125.221 206.336 146.386 218.538 147.713C228.452 148.791 235.473 136.185 239.157 129.881C241.582 125.73 247.439 112.837 246.484 117.453C245.262 123.358 244.013 129.222 244.78 135.285C247.332 155.467 270.229 136.194 275.112 128.492C275.152 128.428 279.919 119.959 281.076 119.074C284.274 116.628 282.78 126.553 282.78 130.344C282.78 150.163 283.589 170.142 282.439 189.938C281.905 199.126 279.446 211.788 268.722 215.952C258.654 219.861 250.213 212.179 248.529 203.679C243.355 177.564 269.937 147.716 289.255 131.271C295.943 125.578 310.438 114.9 321.121 120.155C328.764 123.914 325.457 137.688 325.722 143.93C326.027 151.121 341.503 125.778 342.933 124.014C348.487 117.162 361.646 101.805 365.596 117.376C368.441 128.587 370.198 140.379 384 132.043" stroke="black" stroke-width="3" stroke-linecap="round"/>
<path d="M49 111C46.5491 110.387 48.0225 98.6499 48.0556 97.1111C48.4237 79.9916 51.2578 62.6703 59.1111 47.2778C61.1724 43.2376 80 18.4391 80 35" stroke="black" stroke-width="3" stroke-linecap="round"/>
<path d="M47 115C44.7973 112.797 47.2642 102.496 47.7778 99.2222C48.7505 93.021 48.0219 86.1148 47.7778 79.8889C47.1958 65.0481 46.4277 50.215 45.5556 35.3889C45.2683 30.505 42.7094 -5.16161 30.6111 2.66667C25.5426 5.94631 28.6248 13.2499 33 15" stroke="black" stroke-width="3" stroke-linecap="round"/>
</svg>
