<svg width="271" height="147" viewBox="0 0 271 147" fill="none" xmlns="http://www.w3.org/2000/svg">
<rect width="271" height="147" fill="#1E1E1E"/>
<rect width="271" height="147" fill="white"/>
<path d="M17 96C17.9167 95.8854 22.5535 85.1751 23.5556 83.8889C28.2822 77.8218 32.3781 71.3431 37 65.2222C40.7261 60.2877 44.1791 55.1563 47.2222 49.7778C48.5544 47.4232 50.8995 42.4543 53.4444 41C54.2796 40.5228 54.6671 38.444 55.5 37.6111C55.9323 37.1788 55.0053 45.0648 54.7778 46C53.2379 52.3307 51.8594 58.7215 51 65.1667C49.1093 79.3466 45.416 93.1037 44.0556 107.389C43.3393 114.909 41.3943 122.508 41 130C40.6628 136.406 41 122.345 41 120.5C41 103.252 45.6329 86.9586 48.0556 70C48.739 65.2158 49.8035 60.3887 51.2222 55.7778C52.8999 50.3255 55.5769 48.5029 59.0556 44.4445C62.3439 40.608 70.2574 41 74.7778 41C80.8842 41 81 46.2753 81 51C81 55.2564 77.6456 59.8809 74.4444 62.5C72.2047 64.3325 70.3306 65.551 67.5556 66.0556C65.9043 66.3558 62.4231 66.5481 61 67.2222C57.8715 68.7041 53.1233 70.2326 50.5556 71.9445C48.9222 73.0334 54.4814 72 56.4444 72C59.2686 72 61.0428 72.9341 63 75C66.1586 78.3341 70.3722 82.8554 72.4444 87C74.2612 90.6336 79.5585 97.0264 80 101C80.1394 102.255 83.7492 108.889 85.5556 108.889C90.7946 108.889 88.215 97.3921 89.2222 95C93.7211 84.3151 112.666 86.8091 121 90.7778C129.641 94.8923 115.523 88.6891 113.111 88C109.753 87.0405 106.69 87 103 87C93.1594 87 92.4439 103.444 100 107.222C104.465 109.455 108.283 109.595 112.944 107.556C119.473 104.699 120 101.285 120 94C120 89.286 118.667 104.667 122 108C125.18 111.18 134.6 117.69 138.944 113.889C145.825 107.868 146.356 91.3098 148 83C150.163 72.0637 153.356 60.345 151.944 49.0556C151.599 46.2925 143.18 36.8737 143 43C142.784 50.3275 143.051 56.2162 145.444 63.0556C146.74 66.757 146.427 71.1386 147.5 75C148.754 79.5152 150.265 83.3296 152 87.6667C152.638 89.2624 159.723 109.166 162.5 106.389C165.366 103.523 166.184 98.211 167.5 94.5556C168.09 92.916 170.915 89.2765 171 88C171.583 79.2533 169 105.456 169 114.222C169 116.572 170.645 139.273 166 139C160.551 138.679 162 119.402 162 115.5C162 105.599 170.787 91.1383 180 87.5556C186.996 84.8348 196.509 89.4615 199.778 96C203.132 102.709 201.423 107 194.111 107C191.82 107 190.595 105.521 188.5 105.056C186.16 104.536 183.287 105 180.889 105C175.913 105 170.49 105.155 166 102.778C158.681 98.9029 171.863 98 173.944 98C180.378 98 185.3 100.767 191.444 102.222C197.562 103.671 212.165 105.558 215.5 98.8889C220.622 88.6451 220.901 75.9322 222.222 64.7778C223.24 56.1831 224.421 46.8966 220.5 39.0556C219.38 36.8159 219 34.9305 219 32.4445C219 31.4756 219 23.9487 219 28.4445C219 48.122 220 67.5862 220 87.2222C220 89.4671 219.999 106.5 218.444 106.944C215.035 107.918 215.668 96.5341 215.5 95.0556C214.928 90.025 214.464 86.744 218 83C221.516 79.2775 224.82 75.5043 230 79.9445C234.917 84.1589 239.538 88.7933 244.556 92.7778C251.101 97.9757 253.123 97.6724 259.444 92.5C263.116 89.4964 260.302 81.8488 264 80" stroke="black" stroke-width="3" stroke-linecap="round"/>
</svg>
